<?xml version="1.0" standalone="no"?>
<!DOCTYPE svg PUBLIC "-//W3C//DTD SVG 20010904//EN"
 "http://www.w3.org/TR/2001/REC-SVG-20010904/DTD/svg10.dtd">
<svg version="1.0" xmlns="http://www.w3.org/2000/svg"
 width="438.000000pt" height="434.000000pt" viewBox="0 0 438.000000 434.000000"
 preserveAspectRatio="xMidYMid meet">

<g transform="translate(0.000000,434.000000) scale(0.100000,-0.100000)"
fill="#000000" stroke="none">
<path d="M717 3582 l-607 -607 0 -853 c0 -721 2 -857 14 -880 8 -15 282 -294
608 -619 l593 -593 865 0 865 0 578 578 c319 317 592 595 608 616 l29 39 0
855 0 855 -97 100 c-54 55 -241 244 -416 421 -175 176 -400 405 -500 509
l-180 187 -876 0 -876 0 -608 -608z m2179 269 c23 -1 27 -4 136 -117 l78 -79
-19 -50 c-10 -28 -28 -77 -40 -110 -13 -33 -40 -97 -62 -143 -21 -46 -39 -88
-40 -95 0 -7 -9 -25 -19 -42 -11 -16 -38 -64 -60 -105 -22 -41 -55 -97 -72
-125 -87 -137 -117 -182 -132 -194 -9 -7 -16 -17 -16 -22 0 -25 -202 -260
-336 -389 -173 -167 -287 -260 -476 -383 -159 -104 -362 -217 -443 -247 -11
-4 -40 -17 -63 -29 -24 -11 -52 -21 -61 -21 -9 0 -21 -4 -26 -9 -11 -10 -183
-69 -290 -99 -102 -29 -239 -59 -330 -72 -44 -7 -98 -16 -119 -20 -22 -5 -43
-7 -48 -4 -4 3 -8 305 -8 672 l0 667 505 505 504 504 48 5 c36 5 1268 6 1389
2z"/>
</g>
</svg>